<svg width="1024" height="1024" viewBox="0 0 1024 1024" fill="none" xmlns="http://www.w3.org/2000/svg">
<rect width="1024" height="1024" fill="#B80000"/>
<path d="M499.614 566.636H538.443L570.991 609.463L579.557 620.884L628.094 685.409H589.264L557.287 642.582L549.293 631.733L499.614 566.636ZM640.085 511.818C640.085 542.653 634.518 569.301 623.383 591.761C612.248 614.222 596.973 631.543 577.558 643.724C558.143 655.906 535.969 661.997 511.034 661.997C486.099 661.997 463.925 655.906 444.51 643.724C425.095 631.543 409.82 614.222 398.685 591.761C387.55 569.301 381.983 542.653 381.983 511.818C381.983 480.983 387.55 454.335 398.685 431.875C409.82 409.415 425.095 392.094 444.51 379.912C463.925 367.73 486.099 361.639 511.034 361.639C535.969 361.639 558.143 367.73 577.558 379.912C596.973 392.094 612.248 409.415 623.383 431.875C634.518 454.335 640.085 480.983 640.085 511.818ZM605.824 511.818C605.824 486.503 601.589 465.137 593.119 447.721C584.744 430.305 573.371 417.124 559 408.178C544.724 399.232 528.736 394.759 511.034 394.759C493.332 394.759 477.296 399.232 462.925 408.178C448.65 417.124 437.277 430.305 428.807 447.721C420.432 465.137 416.244 486.503 416.244 511.818C416.244 537.134 420.432 558.499 428.807 575.915C437.277 593.332 448.65 606.513 462.925 615.459C477.296 624.405 493.332 628.878 511.034 628.878C528.736 628.878 544.724 624.405 559 615.459C573.371 606.513 584.744 593.332 593.119 575.915C601.589 558.499 605.824 537.134 605.824 511.818Z" fill="white"/>
</svg>
